<svg width="336" height="104" viewBox="0 0 336 104" fill="none" xmlns="http://www.w3.org/2000/svg">
<path d="M330.62 103.925C331.131 104.135 331.715 103.891 331.925 103.38L335.347 95.0565C335.557 94.5457 335.314 93.9613 334.803 93.7513C334.292 93.5413 333.708 93.7851 333.498 94.2959L330.455 101.695L323.056 98.6527C322.546 98.4426 321.961 98.6865 321.751 99.1973C321.541 99.708 321.785 100.292 322.296 100.502L330.62 103.925ZM1.92945 103.369C27.7404 38.3453 95.299 3.74575 163.765 2.74989C232.216 1.75423 301.273 34.3548 330.077 103.385L331.923 102.615C302.727 32.6452 232.784 -0.254235 163.735 0.750102C94.701 1.75424 26.2596 36.6547 0.0705478 102.631L1.92945 103.369Z" fill="white"/>
</svg>
