<svg height='100px' width='100px'  fill="black" xmlns="http://www.w3.org/2000/svg" xmlns:xlink="http://www.w3.org/1999/xlink" version="1.1" x="0px" y="0px" viewBox="0 0 100 100" enable-background="new 0 0 100 100" xml:space="preserve"><path d="M72.689,53.023c-1.656-2.418-3.506-4.114-6.869-5.081c2.445-1.172,4.293-2.675,5.541-4.51  c1.248-1.834,1.873-4.127,1.873-6.879c0-2.546-0.42-4.688-1.26-6.419c-0.844-1.732-2.025-3.121-3.555-4.166  c-1.527-1.044-3.363-1.796-5.504-2.255c-1.959-0.42-4.121-0.638-6.465-0.674V16.77H42.127v6.256H30.129v54.569h11.998v5.82h14.324  v-5.82h0.123c2.443,0,4.166-0.305,6.484-0.917c2.32-0.61,4.383-1.555,6.189-2.825c1.811-1.276,3.25-2.92,4.322-4.931  c1.068-2.015,1.604-4.395,1.604-7.146C75.174,58.363,74.344,55.443,72.689,53.023z M42.127,32.35h11.236  c1.07,0,2.104,0.09,3.094,0.269c0.996,0.179,1.875,0.496,2.641,0.954c0.764,0.459,1.371,1.097,1.832,1.911  c0.459,0.815,0.688,1.86,0.688,3.134c0,2.292-0.688,3.948-2.064,4.966c-1.375,1.021-3.133,1.53-5.271,1.53H42.127V32.35z   M61.102,66.812c-1.455,1.083-3.322,1.621-5.59,1.621H42.127V54.905h12.412c1.135,0,2.229,0.1,3.281,0.287  c1.057,0.189,1.988,0.527,2.797,1.012c0.809,0.486,1.457,1.161,1.941,2.026c0.486,0.86,0.732,1.969,0.732,3.319  C63.291,63.983,62.559,65.734,61.102,66.812z"></path><path d="M1.249,50.249C1.253,23.323,23.073,1.5,50.001,1.499l0,0C76.925,1.5,98.746,23.323,98.75,50.249l0,0  c-0.004,26.926-21.825,48.748-48.749,48.75l0,0C23.073,98.994,1.253,77.175,1.249,50.249L1.249,50.249z M21.828,22.076  c-7.216,7.225-11.668,17.157-11.67,28.173l0,0c0.002,11.016,4.454,20.948,11.67,28.172l0,0c7.223,7.217,17.157,11.666,28.173,11.668  l0,0c11.014-0.002,20.945-4.451,28.17-11.668l0,0c7.217-7.225,11.668-17.156,11.67-28.172l0,0  c-0.002-11.016-4.453-20.948-11.67-28.173l0,0c-7.225-7.216-17.156-11.666-28.17-11.668l0,0  C38.985,10.41,29.051,14.859,21.828,22.076L21.828,22.076z"></path></svg>