<svg width="225" height="214" viewBox="0 0 225 214" fill="none" xmlns="http://www.w3.org/2000/svg">
<path d="M110.587 213.8C89.7875 213.8 70.9875 209.2 54.1875 200C37.5875 190.8 24.4875 178.1 14.8875 161.9C5.48748 145.5 0.787476 127.2 0.787476 107C0.787476 86.8 5.48748 68.6 14.8875 52.4C24.4875 36 37.6875 23.2 54.4875 14C71.2875 4.8 90.0875 0.199997 110.887 0.199997C126.487 0.199997 140.887 2.8 154.087 8C167.287 13.2 178.487 20.8 187.687 30.8L173.587 44.9C157.187 28.3 136.487 20 111.487 20C94.8875 20 79.7875 23.8 66.1875 31.4C52.5875 39 41.8875 49.4 34.0875 62.6C26.4875 75.8 22.6875 90.6 22.6875 107C22.6875 123.4 26.4875 138.2 34.0875 151.4C41.8875 164.6 52.5875 175 66.1875 182.6C79.7875 190.2 94.8875 194 111.487 194C136.687 194 157.387 185.6 173.587 168.8L187.687 182.9C178.487 192.9 167.187 200.6 153.787 206C140.587 211.2 126.187 213.8 110.587 213.8Z" fill="white"/>
<path d="M224.651 141.381L186.325 75L148 141.381H165.374L186.325 105.093L207.276 141.381H224.651Z" fill="white"/>
</svg>
